<svg width="1500" height="1500" viewBox="0 0 1500 1500" fill="none" xmlns="http://www.w3.org/2000/svg">
<path d="M1200 450H300C258.579 450 225 483.579 225 525V975C225 1016.42 258.579 1050 300 1050H1200C1241.42 1050 1275 1016.42 1275 975V525C1275 483.579 1241.42 450 1200 450Z" fill="#2E2E2E"/>
<path d="M716.701 1083V1069.91H724.551V1071.32H718.287V1075.74H723.963V1077.14H718.287V1083H716.701ZM730.329 1083.2C729.443 1083.2 728.665 1082.99 727.996 1082.57C727.331 1082.15 726.812 1081.56 726.437 1080.8C726.066 1080.04 725.88 1079.16 725.88 1078.14C725.88 1077.12 726.066 1076.23 726.437 1075.46C726.812 1074.7 727.331 1074.11 727.996 1073.69C728.665 1073.26 729.443 1073.05 730.329 1073.05C731.216 1073.05 731.991 1073.26 732.656 1073.69C733.325 1074.11 733.845 1074.7 734.216 1075.46C734.591 1076.23 734.778 1077.12 734.778 1078.14C734.778 1079.16 734.591 1080.04 734.216 1080.8C733.845 1081.56 733.325 1082.15 732.656 1082.57C731.991 1082.99 731.216 1083.2 730.329 1083.2ZM730.329 1081.85C731.003 1081.85 731.557 1081.68 731.991 1081.33C732.426 1080.99 732.748 1080.53 732.956 1079.97C733.165 1079.41 733.27 1078.8 733.27 1078.14C733.27 1077.49 733.165 1076.87 732.956 1076.31C732.748 1075.74 732.426 1075.28 731.991 1074.93C731.557 1074.58 731.003 1074.41 730.329 1074.41C729.656 1074.41 729.102 1074.58 728.667 1074.93C728.233 1075.28 727.911 1075.74 727.702 1076.31C727.493 1076.87 727.389 1077.49 727.389 1078.14C727.389 1078.8 727.493 1079.41 727.702 1079.97C727.911 1080.53 728.233 1080.99 728.667 1081.33C729.102 1081.68 729.656 1081.85 730.329 1081.85ZM743.268 1078.99V1073.18H744.777V1083H743.268V1081.34H743.166C742.936 1081.84 742.578 1082.26 742.092 1082.61C741.606 1082.96 740.993 1083.13 740.251 1083.13C739.638 1083.13 739.092 1082.99 738.615 1082.73C738.138 1082.45 737.763 1082.04 737.49 1081.5C737.217 1080.95 737.081 1080.26 737.081 1079.42V1073.18H738.589V1079.32C738.589 1080.03 738.79 1080.61 739.19 1081.03C739.595 1081.46 740.111 1081.67 740.737 1081.67C741.112 1081.67 741.494 1081.57 741.881 1081.38C742.273 1081.19 742.601 1080.9 742.866 1080.5C743.134 1080.1 743.268 1079.6 743.268 1078.99ZM749.048 1077.09V1083H747.54V1073.18H748.997V1074.72H749.125C749.355 1074.22 749.705 1073.82 750.173 1073.51C750.642 1073.21 751.247 1073.05 751.989 1073.05C752.653 1073.05 753.235 1073.19 753.734 1073.46C754.232 1073.73 754.62 1074.14 754.897 1074.69C755.174 1075.24 755.313 1075.93 755.313 1076.76V1083H753.804V1076.86C753.804 1076.09 753.604 1075.49 753.203 1075.06C752.803 1074.63 752.253 1074.41 751.554 1074.41C751.073 1074.41 750.642 1074.51 750.263 1074.72C749.888 1074.93 749.592 1075.24 749.374 1075.64C749.157 1076.04 749.048 1076.52 749.048 1077.09ZM761.777 1083.2C760.958 1083.2 760.236 1083 759.61 1082.58C758.983 1082.17 758.493 1081.58 758.139 1080.82C757.786 1080.06 757.609 1079.16 757.609 1078.12C757.609 1077.09 757.786 1076.19 758.139 1075.43C758.493 1074.67 758.985 1074.09 759.616 1073.67C760.247 1073.26 760.975 1073.05 761.802 1073.05C762.441 1073.05 762.946 1073.16 763.317 1073.37C763.692 1073.58 763.978 1073.82 764.174 1074.09C764.374 1074.35 764.529 1074.57 764.64 1074.74H764.768V1069.91H766.277V1083H764.819V1081.49H764.64C764.529 1081.67 764.372 1081.9 764.167 1082.17C763.963 1082.44 763.671 1082.68 763.291 1082.89C762.912 1083.1 762.407 1083.2 761.777 1083.2ZM761.981 1081.85C762.586 1081.85 763.098 1081.69 763.515 1081.38C763.933 1081.06 764.25 1080.62 764.468 1080.05C764.685 1079.49 764.794 1078.83 764.794 1078.09C764.794 1077.36 764.687 1076.72 764.474 1076.17C764.261 1075.61 763.946 1075.18 763.528 1074.88C763.11 1074.56 762.595 1074.41 761.981 1074.41C761.342 1074.41 760.809 1074.57 760.383 1074.9C759.961 1075.23 759.644 1075.67 759.431 1076.22C759.222 1076.78 759.117 1077.4 759.117 1078.09C759.117 1078.79 759.224 1079.42 759.437 1080C759.654 1080.56 759.974 1081.01 760.396 1081.35C760.822 1081.68 761.35 1081.85 761.981 1081.85ZM769.249 1083V1073.18H770.706V1074.66H770.809C770.987 1074.18 771.311 1073.78 771.78 1073.48C772.249 1073.18 772.777 1073.03 773.365 1073.03C773.476 1073.03 773.615 1073.03 773.781 1073.03C773.947 1073.04 774.073 1073.05 774.158 1073.05V1074.59C774.107 1074.58 773.99 1074.56 773.806 1074.53C773.627 1074.5 773.438 1074.49 773.237 1074.49C772.76 1074.49 772.334 1074.59 771.959 1074.79C771.588 1074.98 771.294 1075.25 771.077 1075.6C770.864 1075.95 770.757 1076.34 770.757 1076.79V1083H769.249ZM777.217 1086.68C776.961 1086.68 776.733 1086.66 776.533 1086.62C776.332 1086.58 776.194 1086.54 776.117 1086.5L776.501 1085.17C776.867 1085.27 777.191 1085.3 777.472 1085.28C777.753 1085.25 778.003 1085.12 778.22 1084.9C778.442 1084.68 778.644 1084.32 778.827 1083.82L779.109 1083.05L775.478 1073.18H777.114L779.824 1081.01H779.927L782.637 1073.18H784.273L780.106 1084.43C779.918 1084.94 779.686 1085.36 779.409 1085.69C779.132 1086.03 778.81 1086.28 778.444 1086.44C778.082 1086.6 777.672 1086.68 777.217 1086.68Z" fill="#2E2E2E"/>
<mask id="mask0_29_2" style="mask-type:alpha" maskUnits="userSpaceOnUse" x="375" y="562" width="600" height="375">
<path d="M495 562H405C388.431 562 375 575.431 375 592V907C375 923.569 388.431 937 405 937H495C511.569 937 525 923.569 525 907V592C525 575.431 511.569 562 495 562Z" fill="#FF7A00"/>
<path d="M720 562H630C613.431 562 600 575.431 600 592V907C600 923.569 613.431 937 630 937H720C736.569 937 750 923.569 750 907V592C750 575.431 736.569 562 720 562Z" fill="#FFB100"/>
<path d="M945 562H855C838.431 562 825 575.431 825 592V907C825 923.569 838.431 937 855 937H945C961.569 937 975 923.569 975 907V592C975 575.431 961.569 562 945 562Z" fill="#5BCF9E"/>
</mask>
<g mask="url(#mask0_29_2)">
<rect x="225" y="449" width="825" height="600" fill="url(#paint0_linear_29_2)"/>
</g>
<path d="M1110 562H1065C1056.72 562 1050 568.716 1050 577V622C1050 630.284 1056.72 637 1065 637H1110C1118.28 637 1125 630.284 1125 622V577C1125 568.716 1118.28 562 1110 562Z" fill="#5BCF9E"/>
<defs>
<linearGradient id="paint0_linear_29_2" x1="225" y1="749" x2="1050" y2="749" gradientUnits="userSpaceOnUse">
<stop stop-color="#B837EC"/>
<stop offset="1" stop-color="#861F1F"/>
</linearGradient>
</defs>
</svg>
