<svg width="1500" height="1500" viewBox="0 0 1500 1500" fill="none" xmlns="http://www.w3.org/2000/svg">
<path d="M1200 450H300C258.579 450 225 483.579 225 525V975C225 1016.42 258.579 1050 300 1050H1200C1241.42 1050 1275 1016.42 1275 975V525C1275 483.579 1241.42 450 1200 450Z" fill="#2E2E2E"/>
<mask id="mask0_30_2" style="mask-type:alpha" maskUnits="userSpaceOnUse" x="375" y="562" width="600" height="375">
<path d="M495 562H405C388.431 562 375 575.431 375 592V907C375 923.569 388.431 937 405 937H495C511.569 937 525 923.569 525 907V592C525 575.431 511.569 562 495 562Z" fill="#FF7A00"/>
<path d="M720 562H630C613.431 562 600 575.431 600 592V907C600 923.569 613.431 937 630 937H720C736.569 937 750 923.569 750 907V592C750 575.431 736.569 562 720 562Z" fill="#FFB100"/>
<path d="M945 562H855C838.431 562 825 575.431 825 592V907C825 923.569 838.431 937 855 937H945C961.569 937 975 923.569 975 907V592C975 575.431 961.569 562 945 562Z" fill="#5BCF9E"/>
</mask>
<g mask="url(#mask0_30_2)">
<path d="M1050 449H225V1049H1050V449Z" fill="url(#paint0_linear_30_2)"/>
</g>
<path d="M1110 562H1065C1056.72 562 1050 568.716 1050 577V622C1050 630.284 1056.72 637 1065 637H1110C1118.28 637 1125 630.284 1125 622V577C1125 568.716 1118.28 562 1110 562Z" fill="#5BCF9E"/>
<defs>
<linearGradient id="paint0_linear_30_2" x1="225" y1="749" x2="1050" y2="749" gradientUnits="userSpaceOnUse">
<stop stop-color="#B837EC"/>
<stop offset="1" stop-color="#861F1F"/>
</linearGradient>
</defs>
</svg>
